<?xml version="1.0" standalone="no"?><!DOCTYPE svg PUBLIC "-//W3C//DTD SVG 1.1//EN" "http://www.w3.org/Graphics/SVG/1.1/DTD/svg11.dtd"><svg t="1747988809179" class="icon" viewBox="0 0 1024 1024" version="1.1" xmlns="http://www.w3.org/2000/svg" p-id="19472" xmlns:xlink="http://www.w3.org/1999/xlink" width="200" height="200"><path d="M512 512m-512 0a512 512 0 1 0 1024 0 512 512 0 1 0-1024 0Z" fill="#FF6A22" p-id="19473"></path><path d="M152.482869 628.230882c-0.246426 1.661093-1.432921 2.847588-2.975364 2.847588s-2.728939-1.186495-2.966238-2.884096l-5.412243-40.505116 5.412243-41.180505c0.228172-1.715854 1.414667-2.902349 2.966238-2.90235 1.533317 0 2.719812 1.186495 2.975364 2.90235l6.443581 41.22614-6.443581 40.495989z m27.57232 24.606082c-0.255553 1.761489-1.533317 2.993618-3.112268 2.993618-1.533317 0-2.874969-1.232129-3.084887-2.993618l-7.283254-65.156833 7.283254-66.617134c0.219045-1.715854 1.55157-2.993618 3.084887-2.993618 1.578951 0 2.856715 1.250383 3.112268 2.993618l8.287212 66.617134-8.287212 65.156833z m29.753646 11.034404c-0.209918 2.117437-1.797996 3.623373-3.705516 3.623373-1.971407 0-3.532105-1.505936-3.723769-3.623373l-6.909052-76.136475 6.909052-79.029699c0.173411-2.144818 1.752362-3.678135 3.723769-3.678134 1.907519 0 3.48647 1.533317 3.705516 3.678134l7.839994 79.029699-7.839994 76.136475z m30.045705 2.418625a4.526935 4.526935 0 0 1-4.371778 4.262255 4.481301 4.481301 0 0 1-4.390031-4.262255l-6.525723-78.5551 6.525723-81.201897a4.481301 4.481301 0 0 1 4.390031-4.280509c2.254341 0 4.152733 1.834504 4.371778 4.280509l7.401904 81.201897-7.401904 78.5551z m30.20999 0.629755a5.047167 5.047167 0 0 1-4.955899 4.910264c-2.683304 0-4.809868-2.090057-4.992406-4.910264l-6.169774-79.193982 6.169774-75.33331c0.191665-2.801954 2.309102-4.89201 4.992406-4.89201 2.646797 0 4.800742 2.090057 4.955899 4.855503l6.991194 75.369817-6.991194 79.193982z m30.50205 0.045634v-0.045634c-0.182538 3.121395-2.655924 5.585654-5.631288 5.585653a5.786445 5.786445 0 0 1-5.631288-5.540019l-5.759065-79.193982 5.759065-122.56494c0.173411-3.121395 2.646797-5.585654 5.631288-5.585654s5.457877 2.473386 5.631288 5.54002l6.525723 122.610574-6.525723 79.193982z m30.273878-0.045634v-0.045635a6.407073 6.407073 0 0 1-6.288424 6.197155c-3.313059 0-6.051125-2.747192-6.215409-6.197155l-5.439623-78.682876 5.439623-150.602731c0.164284-3.449963 2.902349-6.178901 6.215409-6.178901a6.38882 6.38882 0 0 1 6.288424 6.178901l6.12414 150.602731-6.12414 78.728511z m31.405611-1.213876v-0.045635a6.936433 6.936433 0 0 1-6.872544 6.82691 6.936433 6.936433 0 0 1-6.872545-6.781275l-5.047167-77.879711 5.047167-163.197832a6.991194 6.991194 0 0 1 6.872545-6.836037c3.714642 0 6.744768 3.039253 6.872544 6.836037l5.704304 163.197832-5.704304 77.879711z m31.223074-0.520233a7.575315 7.575315 0 0 1-7.502299 7.456666 7.575315 7.575315 0 0 1-7.511427-7.420158l-4.709472-77.414239 4.709472-168.646583a7.575315 7.575315 0 0 1 7.511427-7.465792c4.079718 0 7.365396 3.267425 7.502299 7.465792l5.229705 168.646583-5.229705 77.377731z m31.423866-0.684516v-0.045634a8.214197 8.214197 0 0 1-8.159436 8.104674 8.159435 8.159435 0 0 1-8.104674-8.05904l-4.326143-76.674962 4.280509-164.338693a8.20507 8.20507 0 0 1 8.150308-8.122927c4.481301 0 8.013405 3.541231 8.159436 8.122927l4.855503 164.338693-4.855503 76.674962z m31.679418-0.456344v-0.063888a8.78919 8.78919 0 0 1-17.578381 0.063888l-3.906307-76.227745 3.915434-158.324075a8.853079 8.853079 0 0 1 8.816571-8.752683c4.800742 0 8.688795 3.842419 8.76181 8.752683l4.426539 158.36971-4.435666 76.18211z m32.3183-8.040786l-0.392456 7.465792a9.75664 9.75664 0 0 1-2.811081 6.653499c-1.715854 1.67022-4.070591 2.738066-6.56223 2.738066-2.902349 0-5.457877-1.332525-7.210239-3.431709a9.272915 9.272915 0 0 1-2.190453-5.5674c-0.027381-0.091269-0.027381-0.209918-0.02738-0.337695l-3.60512-75.753146 3.559485-186.580912 0.045635-1.788869c0.027381-3.267425 1.761489-6.178901 4.353524-7.849122a9.05387 9.05387 0 0 1 10.231238 0.082142c2.528147 1.688474 4.180113 4.526935 4.225748 7.776106l3.961068 188.451924-3.577739 68.141324z m31.405612 6.489215v-0.091269a10.130842 10.130842 0 0 1-10.039574 10.003067c-5.476131 0-9.984812-4.490427-10.039574-9.957432l-2.071803-36.781347-2.035295-37.767051 4.107098-204.496987v-1.031338a10.112589 10.112589 0 0 1 10.039574-10.02132c1.889265 0 3.641627 0.520232 5.138436 1.396414 2.856715 1.788869 4.855503 4.955899 4.946772 8.579272l4.444793 205.564833-4.490427 74.603158z m271.369674 10.112589H538.741773c-5.457877-0.55674-9.774894-4.901137-9.866162-10.495918V372.568576c0.091269-5.330101 1.925773-8.077293 8.78919-10.714963a162.887518 162.887518 0 0 1 58.393811-10.915754c84.104246 0 153.021355 64.517951 160.33199 146.705551a91.560911 91.560911 0 0 1 35.275411-7.09159c50.362152 0 91.195836 40.851938 91.195836 91.250597 0 50.389533-40.833684 90.80338-91.195836 90.80338z" fill="#F1F2F2" p-id="19474"></path></svg>