<?xml version="1.0" standalone="no"?><!DOCTYPE svg PUBLIC "-//W3C//DTD SVG 1.1//EN" "http://www.w3.org/Graphics/SVG/1.1/DTD/svg11.dtd"><svg t="1747988693909" class="icon" viewBox="0 0 1024 1024" version="1.1" xmlns="http://www.w3.org/2000/svg" p-id="11400" xmlns:xlink="http://www.w3.org/1999/xlink" width="200" height="200"><path d="M1023.980752 204.817079a197.109041 197.109041 0 0 0-59.90067-144.887944A197.365027 197.365027 0 0 0 819.192138 0.028466H204.826297a197.109041 197.109041 0 0 0-144.887944 59.900669A195.931506 195.931506 0 0 0 0.037683 204.817079v614.365842a197.928195 197.928195 0 0 0 59.90067 144.887944A197.109041 197.109041 0 0 0 204.826297 1023.971534h614.365841a204.532628 204.532628 0 0 0 204.788614-204.788613V204.817079m-460.006424-120.31331A104.288602 104.288602 0 0 1 568.326086 102.422772v16.639075q0 26.110548-8.44753 36.605965T527.368364 171.282944c-7.167601 2.047886-10.904994 4.50535-11.263374 7.423587-0.511972 1.894295 1.023943 5.887673 4.607744 12.031331q16.895061 19.454918 41.469694 50.173211 36.298782 46.077438 40.957723 51.96511a85.704035 85.704035 0 0 1 15.359146 21.75879 73.058338 73.058338 0 0 1-0.511972 27.390478 78.741222 78.741222 0 0 1-3.583801 11.263373 69.474537 69.474537 0 0 1-26.110548 28.926392 84.5265 84.5265 0 0 1-41.981666 17.151046 69.679326 69.679326 0 0 1-43.261594-8.703516q-27.646463-13.823231-23.806677-51.96511a5.119715 5.119715 0 0 1 0.767958-2.047887 85.857626 85.857626 0 0 1 26.366534-40.189765 99.476069 99.476069 0 0 1 46.845395-20.990833c4.761335-0.870352 6.65563-2.406266 5.631687-4.607744a50.53159 50.53159 0 0 0-5.631687-6.143658q-17.407032-17.458229-56.316869-60.924613a269.143436 269.143436 0 0 1-21.75879-23.806676 32.612587 32.612587 0 0 1-9.727459-22.782733 27.69766 27.69766 0 0 1 11.775345-20.734847 90.414173 90.414173 0 0 1 23.806677-15.359147c16.024709-6.29725 27.134491-11.109782 33.278149-14.335202a107.514022 107.514022 0 0 0 29.694349-22.526748m24.83062 305.135035a101.370364 101.370364 0 0 0 23.806676-22.270762 64.150033 64.150033 0 0 0 10.239431-21.502805 65.941934 65.941934 0 0 0 0-25.598576l11.519359-2.559858v22.014776c-0.511972 9.369079-0.921549 20.837241-1.279929 34.302093q-1.023943 42.237652-1.023943 65.788342-25.90576 7.167601-104.954164 25.854562-66.812285 15.359146-76.027773 17.407033L224.281215 389.638803a8.345136 8.345136 0 0 1-0.767957-2.047886l70.652072-12.799288q40.138568-7.167601 70.652071-11.263374 11.007388-1.740703 57.596798-10.239431c21.656396-4.095772 38.244274-6.911616 49.661239-8.44753a84.424106 84.424106 0 0 0 1.535915 18.942947q2.099083 17.663018 25.598576 31.998221a71.061649 71.061649 0 0 0 45.565467 11.775345 100.551209 100.551209 0 0 0 43.773566-17.919004m52.221096-72.187986v-0.511972q12.799288 1.331126 100.602407 28.926392l122.873168 38.653851q0 2.303872-33.022164 11.007388l-56.572854 13.31126c-2.559858 0.665563-5.119715 1.279929-7.935559 1.7919s-5.119715 1.279929-7.423587 1.791901L706.558401 424.452868q-28.926392 5.93887-67.836229 14.335203 0-23.601888 1.023943-65.788343c0.35838-13.464851 0.767957-24.933014 1.279929-34.302092V317.450817M302.100888 352.008896A66.91468 66.91468 0 0 1 264.726966 337.929678a50.122013 50.122013 0 0 1-19.454918-29.182377 39.677794 39.677794 0 0 1 6.911616-31.48625 43.671172 43.671172 0 0 1 27.902449-16.383089q32.766178-6.65563 61.436584 22.014776l12.799288-93.69079q1.535915-17.867807 10.239431-23.294705t26.366534-0.767958a123.538731 123.538731 0 0 1 24.062662 8.703517 104.13501 104.13501 0 0 0 43.51758 15.359146q-23.038719 27.902449-35.326036 30.718292T377.872676 206.352994L360.465643 286.732525c-1.382323 5.990067-3.481406 15.359146-6.399644 28.158434a47.766944 47.766944 0 0 1-17.919003 29.182378A51.197153 51.197153 0 0 1 302.100888 352.008896M441.10116 486.913395l0.511972 0.255986L302.61286 643.576684l-206.580514-114.937609 112.633737-136.952386 232.435077 95.226706m13.055274 4.095772l8.703516-2.559858q17.099849-5.375701 188.149539-45.053495 25.598577-5.93887 53.501026-12.543302l53.245039-12.287317c2.559858-0.511972 5.119715-1.126337 7.423587-1.7919s5.375701-1.126337 7.935559-1.791901l56.572855-13.31126q14.335203-3.327815 29.950334-7.167601 1.740703 12.543303 3.07183 208.884386 0 98.093746 0.255985 193.781226l-0.255985 0.255985q-81.403474 29.182377-173.046379 60.924613-183.285809 63.48447-233.45902 75.771787v-8.44753a14.488794 14.488794 0 0 1 0-2.559858v-23.294705q-1.331126-54.524968-2.815843-133.880556v-3.839786c0-19.557313 0-39.063428-0.255986-58.620741v-8.191545l-2.303872-199.668898 4.351758-4.86373M299.541031 650.232314l5.119715 3.327815L442.381089 498.68874l2.303872 203.252699v3.839787c0 1.382323 0 2.815843 0.255986 4.351758v62.460527q1.535915 79.304391 2.815843 133.880556v23.294705a14.488794 14.488794 0 0 0 0.255986 2.559858v0.255985q-5.119715 2.047886-107.770008-76.79573l-102.394307-79.867559-12.287317-166.646734 73.979887 40.957722m594.142965-221.93966q15.359146 23.806676 29.182378 42.237652h-56.316869V387.846903l27.134491 40.445751m-128.504855 47.357367a47.101381 47.101381 0 0 0-31.486249 1.535915 74.543055 74.543055 0 0 0-25.086605 20.478861 415.874477 415.874477 0 0 0-36.349979 34.814064q-0.767957 0.972746-33.27815 36.861951l-4.351758-2.303872v-23.806676a47.30617 47.30617 0 0 0-14.847174-33.022164 42.08406 42.08406 0 0 0-33.022164-10.239431A49.200464 49.200464 0 0 0 552.96694 517.119715a57.852783 57.852783 0 0 0-14.079217 38.909837q0 87.035161 2.047886 128.248869 1.279929 16.331892 1.279929 49.149268c0 22.373156 0.35838 39.319414 1.023943 50.941167q0 27.441674 14.847175 41.469695a42.493637 42.493637 0 0 0 37.373922 10.751402 45.207086 45.207086 0 0 0 30.718292-16.127104 49.507647 49.507647 0 0 0 13.055274-34.046107v-43.51758c0-8.857108 0.665563-13.823231 2.047886-14.847174s6.809221 1.023943 15.359146 6.143658q9.215488 5.119715 41.213709 23.550691 25.137802 14.847174 41.213708 22.270761a43.056806 43.056806 0 0 0 48.637296-4.607744 47.66455 47.66455 0 0 0 18.942947-45.565466 34.302093 34.302093 0 0 0-12.543303-23.294705q-3.583801-2.867041-22.270762-13.567246l-58.876726-32.510192c-6.29725-3.225421-9.625065-7.01401-9.983445-11.263374s2.303872-8.08915 7.935559-12.543302q13.055274-15.359146 41.213708-46.077438l20.478862-22.782734c8.037953-9.061896 14.232809-16.639075 18.686961-22.782733q14.591189-21.246819 6.399644-42.237652a43.363989 43.363989 0 0 0-32.510193-27.134491z" fill="#FA7A33" p-id="11401"></path></svg>